<?xml version="1.0" encoding="UTF-8" standalone="no"?>
<svg width="252px" height="104px" viewBox="0 0 252 104" version="1.1" xmlns="http://www.w3.org/2000/svg" xmlns:xlink="http://www.w3.org/1999/xlink" xmlns:sketch="http://www.bohemiancoding.com/sketch/ns">
    <!-- Generator: Sketch 3.3.3 (12072) - http://www.bohemiancoding.com/sketch -->
    <title>Zoella Logo</title>
    <desc>Created with Sketch.</desc>
    <defs></defs>
    <g id="design-v-9" stroke="none" stroke-width="1" fill="none" fill-rule="evenodd" sketch:type="MSPage">
        <g id="10_14_HomePage" sketch:type="MSArtboardGroup" transform="translate(-240.000000, -79.000000)" stroke="#4A4A4A" fill="#5C5260">
            <g id="Logo-BG-+-Zoella-Logo-Copy-3" sketch:type="MSLayerGroup" transform="translate(240.000000, 80.000000)">
                <g id="Zoella-Logo" transform="translate(0.000000, 0.113088)" sketch:type="MSShapeGroup">
                    <path d="M218.630538,76.3225233 C212.824982,68.9906845 217.718674,59.5660777 222.915617,60.0237217 C229.558148,60.6090188 229.388327,69.3635796 229.388327,69.3635796 C230.026474,87.5856514 222.69042,81.4503611 218.630538,76.3225233 M181.227735,64.96829 C177.239052,53.2480475 177.087162,34.1716009 179.836996,26.8312873 C179.836996,26.8312873 181.493542,20.5286179 182.617946,24.9546289 C183.240799,27.4070501 184.126294,35.2738663 184.325122,43.54271 C184.656325,57.3610174 183.723365,72.3011882 181.227735,64.96829 M148.028791,64.96829 C144.040108,53.2480475 143.888219,34.1716009 146.63858,26.8312873 C146.63858,26.8312873 148.295126,20.5286179 149.41953,24.9546289 C150.042383,27.4070501 150.927878,35.2738663 151.126178,43.54271 C151.457909,57.3610174 150.524421,72.3011882 148.028791,64.96829 M131.106818,74.9803126 C131.106818,74.9803126 128.432402,73.9421387 128.432402,68.8143008 C128.432402,68.8143008 129.161788,57.7047801 133.781235,58.2540588 C138.400681,58.8033376 136.394473,71.3175713 131.106818,74.9803126 M114.240221,75.4067055 C114.240221,75.4067055 104.606309,73.2095904 108.739499,70.2190138 C108.739499,70.2190138 110.623878,69.1193969 113.054639,71.0119456 C115.485926,72.9044944 117.073911,76.2610803 114.240221,75.4067055 M114.817718,80.9619956 C112.629559,87.3107472 108.253241,86.6878428 106.673168,86.7005551 C104.667487,86.7159159 98.4067895,84.4414674 98.4067895,78.3983415 C98.4067895,72.2937727 102.539979,70.2566211 102.539979,70.2566211 C105.092567,68.8752141 104.606309,71.5612244 104.606309,71.5612244 C103.937573,76.2012264 111.911248,78.5217571 113.845203,78.7643508 C115.303975,78.9476203 114.817718,80.9619956 114.817718,80.9619956 M74.9456542,6.82419188 C83.6065234,6.82419188 81.2364134,12.9594822 81.2364134,12.9594822 C79.3214447,22.8480892 44.8593918,83.7396406 40.0274053,93.0794985 C35.1954187,102.419356 45.8624958,101.869548 48.6888018,101.503009 C51.5145805,101.137 70.5693364,98.0240669 87.2539823,95.1849789 C103.937573,92.3469503 116.519619,95.0022391 116.519619,95.0022391 C118.205699,95.2993899 118.069104,92.896229 118.069104,92.896229 C117.932509,89.9204835 116.50116,90.0841548 116.50116,90.0841548 L113.692786,90.0576707 C111.596393,89.9353145 112.416492,89.0502183 112.416492,89.0502183 C115.911534,87.340939 118.251582,82.4578136 118.434061,81.0838221 C118.616012,79.7103603 119.163447,79.8936298 119.163447,79.8936298 C123.904194,80.7178128 126.7305,79.0699765 127.368647,78.6118028 C128.006794,78.1541588 128.462463,79.1610816 128.462463,79.1610816 C130.8331,83.0070924 135.847565,83.8312754 138.765111,83.9229101 C141.682656,84.0140152 145.602778,82.7327178 147.42598,80.7178128 C149.249182,78.7034375 149.523427,81.5419958 149.523427,81.5419958 C153.807978,97.7491627 165.933828,97.0160847 165.933828,97.0160847 C176.782856,96.92445 181.706082,86.5776692 182.617946,84.8381982 C183.529811,83.0987271 183.986007,84.4721889 184.441676,86.1200252 C184.897345,87.7683912 189.091184,95.9175272 198.755157,96.4668059 C208.419658,97.0166144 214.527938,88.2265649 216.077423,84.1972847 C217.627962,80.1685341 218.17487,80.9921874 218.813017,81.8163704 C219.451164,82.6410831 222.551188,86.8525735 227.747604,85.1131024 C232.944547,83.3736313 232.670829,75.2239657 232.488351,70.7370414 C232.3064,66.2501171 234.494032,70.1877626 236.044043,75.4067055 C237.594055,80.6261781 241.605416,84.9298329 243.884814,84.9298329 C246.163685,84.9298329 247.896175,82.8238229 249.446187,80.8094476 C250.995672,78.7950723 252.363732,75.132331 250.722481,74.3997827 C249.08123,73.6672344 248.169893,75.3156005 246.528115,78.520168 C244.887391,81.7247356 242.152851,83.3736313 240.055404,76.3225233 C237.958485,69.2719449 231.029578,54.7131441 223.827482,54.8964135 C216.624331,55.079683 212.522258,64.053002 212.157301,68.2448942 C211.792344,72.4362567 214.436699,76.9634368 214.436699,76.9634368 C209.695952,93.9947866 201.125794,92.438585 198.573206,92.438585 C196.02009,92.438585 193.64998,91.7976715 193.64998,91.7976715 C185.809209,85.2958422 184.897345,74.1254082 184.897345,74.1254082 C188.635515,65.6092036 188.271086,45.2816514 188.271086,45.2816514 C187.723123,14.790588 183.529811,15.5231363 183.529811,15.5231363 C177.78596,15.614771 174.959654,30.3568413 174.372664,43.5421803 C173.785674,56.7275194 180.794744,75.132331 180.794744,75.132331 C181.524131,76.7801673 181.341652,77.1467063 181.341652,77.1467063 C180.156597,81.8163704 176.965334,91.5222376 166.389496,92.438585 C155.814186,93.3538731 152.622923,78.6118028 151.984776,76.871802 C151.346629,75.132331 151.893537,74.3997827 151.893537,74.3997827 C151.893537,74.3997827 156.782482,64.4656232 155.266751,39.055256 C153.807978,14.6073185 150.344052,14.9738575 150.344052,14.9738575 C146.332164,14.4701313 141.500177,28.9828498 140.770791,42.8096321 C140.115767,55.2269342 146.696593,72.2937727 146.696593,72.2937727 C147.547808,74.308148 147.15279,75.2239657 147.15279,75.2239657 C145.147109,80.6261781 140.223883,80.3512739 136.668191,80.0768993 C133.112499,79.8019951 133.750646,77.6965147 133.750646,77.6965147 C140.163233,69.9012054 140.041405,63.1371842 140.041405,63.1371842 C140.284534,54.4689613 134.206314,54.6215093 134.206314,54.6215093 C124.238562,54.4689613 125.454206,75.2239657 125.454206,75.2239657 C125.53437,75.807144 124.907298,76.047619 124.907298,76.047619 C122.809851,77.238341 120.074784,76.9634368 120.074784,76.9634368 C118.980968,76.9634368 119.072208,76.414158 119.072208,76.414158 C119.345925,72.8435811 114.878368,64.7855502 107.220076,64.6022808 C99.561783,64.4190113 95.3679436,71.1030507 95.0942259,77.7881495 C94.8210357,84.4721889 99.5918445,88.2292133 101.293746,88.8674784 C102.82108,89.4395335 102.29685,89.6911318 102.29685,89.6911318 C98.8323967,89.6911318 75.3106111,93.1711333 71.4812011,94.0864213 C67.6523185,95.0022391 59.4465907,95.7342577 50.147047,96.8338746 C40.8480308,97.9324321 43.9475271,93.7204121 43.9475271,93.7204121 C45.0413429,91.8887766 48.1413665,86.5776692 48.1413665,86.5776692 C48.1413665,86.5776692 71.6631521,42.9929016 76.2219484,33.6530436 C80.7807447,24.3131857 84.1507943,15.1422959 85.1565352,8.74640275 C85.9771607,3.52798954 82.2395174,3.61962428 79.6864016,3.61962428 C77.1338132,3.61962428 48.3233176,3.70596222 45.1763558,3.76316772 C40.1713839,3.8537431 24.8627097,5.38981683 18.2375825,4.53491235 C11.7321739,3.69589829 5.83801525,-0.0431170266 2.00913266,0.140152459 C-1.82027732,0.323421944 2.71003968,5.39511363 13.1318784,7.67591827 C13.1318784,7.67591827 20.637754,9.00488688 31.7921434,8.0790052 C38.5950024,7.51383601 66.2842577,6.82419188 74.9456542,6.82419188 Z" id="Z-Script-Logo"></path>
                </g>
            </g>
        </g>
    </g>
</svg>